<?xml version="1.0" encoding="UTF-8" standalone="no"?>
<!-- Created with Inkscape (http://www.inkscape.org/) -->

<svg
   width="210mm"
   height="100mm"
   viewBox="0 0 210 100"
   version="1.1"
   id="svg5"
   xml:space="preserve"
   inkscape:version="1.2.2 (732a01da63, 2022-12-09)"
   sodipodi:docname="LogoOFicial.svg"
   xmlns:inkscape="http://www.inkscape.org/namespaces/inkscape"
   xmlns:sodipodi="http://sodipodi.sourceforge.net/DTD/sodipodi-0.dtd"
   xmlns="http://www.w3.org/2000/svg"
   xmlns:svg="http://www.w3.org/2000/svg"><sodipodi:namedview
     id="namedview7"
     pagecolor="#ffffff"
     bordercolor="#000000"
     borderopacity="0.25"
     inkscape:showpageshadow="2"
     inkscape:pageopacity="0.0"
     inkscape:pagecheckerboard="0"
     inkscape:deskcolor="#d1d1d1"
     inkscape:document-units="mm"
     showgrid="false"
     inkscape:zoom="0.73851712"
     inkscape:cx="335.13103"
     inkscape:cy="345.28651"
     inkscape:window-width="1920"
     inkscape:window-height="1009"
     inkscape:window-x="-8"
     inkscape:window-y="-8"
     inkscape:window-maximized="1"
     inkscape:current-layer="layer1" /><defs
     id="defs2" /><g
     inkscape:label="Capa 1"
     inkscape:groupmode="layer"
     id="layer1"><path
       style="fill:#000000;stroke-width:0.264583"
       d="m 30.039658,71.556988 c 0,-0.28205 0.28707,-0.39716 0.992187,-0.39787 1.539108,-0.002 2.580063,-0.78294 2.938317,-2.20569 0.209119,-0.83048 0.30103,-5.60815 0.297019,-15.43913 -0.0055,-13.41013 -0.03496,-14.30069 -0.508053,-15.34269 -0.407115,-0.896691 -0.694166,-1.159511 -1.515544,-1.387591 -0.557316,-0.15476 -1.281192,-0.28204 -1.608614,-0.28285 -0.352121,-7.9e-4 -0.595312,-0.1636 -0.595312,-0.39835 0,-0.343501 1.014235,-0.396871 7.540624,-0.396871 6.183318,0 7.540625,0.0648 7.540625,0.360021 0,0.23663 -0.471937,0.41591 -1.376987,0.5231 -1.646494,0.195 -2.518402,0.939291 -2.868501,2.448651 -0.343286,1.47999 -0.319067,27.50619 0.02676,28.75146 0.390062,1.40456 1.220245,1.85053 3.713554,1.99486 5.197829,0.3009 8.367641,-1.42797 9.639648,-5.25762 0.30877,-0.92961 0.57209,-1.30381 0.91749,-1.30381 0.45969,0 0.46441,0.0845 0.0922,1.65365 -0.32141,1.35519 -1.41295,6.7713 -1.41295,7.01093 0,0.0367 -5.357813,0.0667 -11.90625,0.0667 -10.406943,0 -11.906249,-0.05 -11.906249,-0.39687 z m -15.235505,-4.079 c -0.315703,-0.31545 0.01148,-0.50939 1.14644,-0.67957 2.755526,-0.41318 3.032174,-1.00118 3.188128,-6.7762 l 0.118582,-4.391 2.017738,-0.3071 c 1.109758,-0.1689 2.493992,-0.30595 3.076075,-0.30455 l 1.058334,0.003 0.09612,4.69557 c 0.122976,6.0075 0.458092,6.73658 3.267747,7.10929 0.696486,0.0924 1.266346,0.30148 1.266351,0.46463 8e-6,0.21222 -2.152356,0.29664 -7.562585,0.29664 -4.159431,0 -7.61225,-0.0496 -7.67293,-0.11024 z m -3.067041,-2.49658 c -2.3378131,-2.92995 -1.993114,-7.03189 0.8321,-9.90201 3.484471,-3.53987 8.356984,-4.68289 17.561579,-4.1197 l 2.819283,0.17249 v 1.57055 1.57055 l -1.082333,-0.18286 c -0.595284,-0.10057 -3.125362,-0.19065 -5.622396,-0.20017 -5.132951,-0.0196 -7.871352,0.46696 -10.719027,1.90446 -1.748439,0.88261 -3.557794,2.75798 -4.024111,4.17094 -0.504735,1.52936 -0.205637,3.84166 0.640403,4.95087 0.916904,1.20213 0.548892,1.26101 -0.405498,0.0649 z m 173.502328,0.63618 c -1.34102,-0.27098 -1.7414,-0.85693 -1.7414,-2.54853 0,-2.10751 0.52214,-2.58737 2.94784,-2.70909 1.68478,-0.0845 2.04492,-0.0205 2.67455,0.47563 0.65833,0.51875 0.72761,0.73467 0.72761,2.26782 0,1.46757 -0.0797,1.7457 -0.59532,2.07685 -0.76911,0.49399 -2.6945,0.70379 -4.01328,0.43732 z m 3.23751,-2.38539 c 0.0987,-1.38568 -0.34608,-1.86167 -1.73959,-1.86167 -1.4737,0 -1.91641,0.38925 -1.91641,1.685 0,0.62547 0.0844,1.22163 0.18758,1.3248 0.10317,0.10317 0.90684,0.15278 1.78594,0.11024 l 1.59836,-0.0773 z m -13.97475,1.7102 c 0,-0.52916 0.13229,-0.66146 0.66146,-0.66146 0.52917,0 0.66146,0.1323 0.66146,0.66146 0,0.52917 -0.13229,0.66146 -0.66146,0.66146 -0.52917,0 -0.66146,-0.13229 -0.66146,-0.66146 z m 3.26453,0.27106 c -1.20156,-0.84161 -0.98259,-4.0008 0.31839,-4.59357 0.37142,-0.16923 1.50315,-0.3077 2.51495,-0.3077 1.73133,0 1.83964,0.0351 1.8398,0.59532 1.5e-4,0.54591 -0.10414,0.58817 -1.25677,0.50925 -2.32816,-0.15942 -3.48195,0.88343 -2.7514,2.48682 0.2692,0.59082 0.44045,0.64195 2.15025,0.64195 1.68136,0 1.85775,0.0502 1.85775,0.52916 0,0.48381 -0.17639,0.52917 -2.05779,0.52917 -1.38577,0 -2.23982,-0.12749 -2.61518,-0.3904 z m 13.40422,-1.68526 c 0,-2.99183 0.13554,-3.08371 4.54907,-3.08371 3.29096,0 3.45642,0.0262 3.94097,0.62462 0.39601,0.48905 0.50579,1.04896 0.50579,2.57969 0,1.90901 -0.0156,1.95506 -0.66145,1.95506 -0.63105,0 -0.66146,-0.072 -0.66146,-1.56586 0,-2.17519 -0.12804,-2.40289 -1.35123,-2.40289 h -1.03002 l -0.0313,1.78594 c -0.0172,0.98226 -0.0172,1.87523 0,1.98437 0.0172,0.10914 -0.26633,0.19844 -0.63013,0.19844 -0.64719,0 -0.66146,-0.0431 -0.66146,-1.99887 v -1.99887 l -1.25677,0.0806 -1.25677,0.0806 -0.0777,1.91823 c -0.0745,1.8395 -0.10441,1.91823 -0.7276,1.91823 -0.63488,0 -0.64987,-0.0479 -0.64987,-2.07566 z M 62.054241,53.689108 c 0,-6.01801 0.13859,-6.17402 5.59634,-6.29962 l 3.92866,-0.0904 v 0.95031 0.9503 h -3.2749 c -3.5663,0 -3.71851,0.0591 -3.92208,1.52136 l -0.11971,0.85989 h 3.65834 3.65835 v 0.78629 0.78628 l -3.63802,0.0736 -3.63802,0.0736 -0.0773,2.05052 -0.0773,2.05052 h -1.04721 -1.0472 z m 9.26041,3.60849 c 0,-0.26823 4.61728,-9.07958 4.97131,-9.48697 0.26599,-0.30608 0.78593,-0.46302 1.53398,-0.46302 0.93553,0 1.21919,0.12607 1.63713,0.72761 0.56075,0.80708 4.82217,8.9299 4.82217,9.19168 0,0.0909 -0.50602,0.12869 -1.12448,0.084 -0.99477,-0.072 -1.18552,-0.19574 -1.65365,-1.07284 l -0.52916,-0.99147 -3.20097,-7.9e-4 -3.20096,-6.4e-4 -0.47724,1.05833 c -0.45062,0.99929 -0.54143,1.05834 -1.62768,1.05834 -0.63275,0 -1.15045,-0.0469 -1.15045,-0.10418 z m 8.73125,-3.73815 c 0,-0.25046 -2.11976,-4.35976 -2.24895,-4.35976 -0.1292,0 -2.24896,4.1093 -2.24896,4.35976 0,0.076 1.01203,0.13816 2.24896,0.13816 1.23692,0 2.24895,-0.0622 2.24895,-0.13816 z m 5.82084,-1.20146 v -5.04378 l 4.75371,0.0828 c 5.47569,0.0954 5.55813,0.12857 5.76864,2.31938 0.10011,1.04188 0.0246,1.46617 -0.33087,1.85895 -0.43909,0.48519 -0.43452,0.54208 0.0979,1.21897 0.62352,0.79267 0.74033,2.33137 0.25745,3.39117 -0.45983,1.00923 -1.51867,1.21625 -6.22071,1.21625 h -4.32615 z m 8.41375,2.8742 c 0.44817,-0.44817 0.39406,-1.42022 -0.10695,-1.92123 -0.34688,-0.34688 -0.93917,-0.41077 -3.24114,-0.34962 l -2.81671,0.0748 -0.0806,1.25677 -0.0806,1.25677 h 3.00429 c 1.98389,0 3.11213,-0.10783 3.32179,-0.3175 z m -0.37183,-3.99502 c 0.31278,-0.22871 0.4404,-0.60509 0.3813,-1.12448 l -0.0888,-0.7807 -3.10886,-0.0745 -3.10885,-0.0745 v 1.19902 1.19902 h 2.72755 c 1.81964,0 2.88405,-0.11443 3.1977,-0.34377 z m 4.65808,1.12047 v -5.04414 l 4.653709,0.0832 4.65373,0.0832 0.62617,0.72865 c 1.28235,1.4922 1.04969,4.34203 -0.42288,5.17981 -0.42686,0.24285 -0.77685,0.54162 -0.77777,0.66393 -8e-4,0.12231 0.53411,0.84952 1.18895,1.61602 0.65486,0.76651 1.19064,1.4701 1.19064,1.56356 0,0.0934 -0.53297,0.16991 -1.1844,0.16991 -1.15125,0 -1.21971,-0.048 -2.4474,-1.71622 l -1.26303,-1.71622 -1.98438,0.0626 -1.98439,0.0626 -0.0788,1.65364 -0.0788,1.65365 h -1.04571 -1.0457 z m 8.149189,-0.30045 c 0.17463,-0.17462 0.3175,-0.74612 0.3175,-1.27 0,-1.45445 -0.2927,-1.5875 -3.49251,-1.5875 h -2.85752 v 1.5875 1.5875 h 2.85752 c 1.86973,0 2.96726,-0.10975 3.17501,-0.3175 z m 4.77134,5.08316 c -0.0485,-0.14379 -0.0532,-2.40598 -0.0105,-5.02709 l 0.0777,-4.76565 h 1.04679 1.04679 v 5.02708 5.02709 h -1.03629 c -0.56995,0 -1.07597,-0.11765 -1.12448,-0.26143 z m 6.53742,0.0684 c -1.75952,-0.44694 -2.35885,-1.76638 -2.31038,-5.0863 0.0623,-4.2649 0.5029,-4.60845 6.06967,-4.73247 l 4.03489,-0.0899 v 0.94979 0.94978 h -3.41027 c -4.49603,0 -4.61781,0.0847 -4.5895,3.19139 0.0282,3.09028 0.12746,3.15861 4.5895,3.15861 h 3.41027 v 0.92605 0.92604 l -3.63802,-0.0307 c -2.00091,-0.0169 -3.87118,-0.0899 -4.15616,-0.16231 z m 11.00201,-4.10648 c 2.87378,-5.71259 2.90531,-5.75469 4.30981,-5.75469 0.74739,0 1.26879,0.15721 1.53567,0.46302 0.22224,0.25466 1.32798,2.24896 2.45719,4.43177 1.12922,2.18282 2.15647,4.08186 2.28277,4.22011 0.52688,0.57668 0.21352,0.93927 -0.81176,0.93927 -0.93944,0 -1.09964,-0.10362 -1.63622,-1.05834 l -0.59481,-1.05833 -3.19243,0.003 -3.19242,0.003 -0.44338,1.05564 c -0.42582,1.01385 -0.49153,1.05563 -1.66034,1.05563 h -1.21697 z m 6.58175,0.42771 c 0,-0.23414 -1.85669,-3.8839 -2.11491,-4.15734 -0.11629,-0.12315 -0.68371,0.73653 -1.26094,1.91041 -0.57723,1.17387 -0.98646,2.19736 -0.9094,2.27442 0.20026,0.20026 4.28525,0.17405 4.28525,-0.0275 z m 7.50736,3.68935 c -0.30933,-0.0607 -0.84512,-0.41091 -1.19062,-0.77826 -0.59831,-0.63613 -0.63221,-0.86832 -0.71255,-4.8807 l -0.0844,-4.21279 h 1.07654 1.07654 v 3.513 c 0,4.81174 -0.1042,4.68908 3.98375,4.68908 h 3.16 v 0.92605 0.92604 l -3.37344,-0.036 c -1.85539,-0.0198 -3.62653,-0.0857 -3.93587,-0.14639 z m 8.3771,-0.016 c 0.005,-0.10914 1.10653,-2.34156 2.4474,-4.96093 l 2.43794,-4.7625 1.34641,-0.0785 c 0.87126,-0.0508 1.44097,0.0426 1.61435,0.26459 0.14736,0.18869 1.13427,2.00995 2.19314,4.04724 1.05886,2.03729 2.00578,3.82323 2.10425,3.96875 0.0985,0.14552 0.31882,0.592 0.48966,0.99219 l 0.31063,0.7276 h -1.17957 c -1.1098,0 -1.21152,-0.0626 -1.7195,-1.05833 l -0.53992,-1.05834 -3.10348,0.002 -3.10347,0.002 -0.60322,1.05629 c -0.54442,0.95335 -0.70559,1.0563 -1.65364,1.0563 -0.57774,0 -1.04618,-0.0893 -1.04098,-0.19844 z m 8.5134,-3.65011 c 0.13403,-0.13403 -0.92997,-2.3247 -1.84798,-3.8048 -0.39534,-0.63741 -0.40523,-0.62724 -1.41497,1.45521 -0.55927,1.1534 -1.01904,2.1864 -1.02171,2.29554 -0.006,0.22507 4.06232,0.27638 4.28466,0.0541 z m 5.76464,2.9403 v -0.94385 h 3.83142 3.83142 l 0.17629,-0.70241 c 0.3346,-1.33314 -0.0703,-1.53416 -3.38146,-1.67884 -3.6073,-0.15761 -4.29613,-0.4711 -4.55207,-2.07166 -0.23678,-1.48075 0.0552,-2.62161 0.82623,-3.22808 0.59374,-0.46704 1.0841,-0.52109 4.72781,-0.52109 h 4.06536 v 0.92604 0.92604 h -3.56256 c -3.31379,0 -3.58272,0.0377 -3.85112,0.53916 -0.38672,0.72259 -0.10983,1.4848 0.60942,1.67762 0.32261,0.0865 1.68228,0.15888 3.0215,0.16086 1.33922,0.002 2.73476,0.14022 3.1012,0.30718 1.31941,0.60117 1.59245,3.66487 0.43031,4.82849 -0.51213,0.51278 -0.89815,0.56308 -4.91476,0.64044 l -4.35899,0.084 z m 13.89063,0.71884 c -1.5302,-0.37018 -2.25734,-1.99267 -2.22736,-4.96998 0.0238,-2.35783 0.45666,-3.55063 1.56043,-4.29948 0.80958,-0.54924 1.17259,-0.59531 4.69157,-0.59531 h 3.81409 l -0.0829,0.8599 -0.0829,0.85989 -3.56247,0.13229 c -3.49886,0.12993 -3.56933,0.14455 -3.94683,0.81841 -0.2114,0.37736 -0.30646,0.88912 -0.21125,1.13723 0.15263,0.39776 0.60388,0.44625 3.81454,0.40986 l 3.64143,-0.0413 v 0.75611 0.75611 l -3.77031,0.0734 c -2.07367,0.0404 -3.77031,0.17144 -3.77031,0.29125 0,0.75039 0.65816,1.90512 1.15091,2.01926 0.31288,0.0725 1.9381,0.16105 3.61159,0.19684 l 3.0427,0.0651 0.0829,0.85989 0.0829,0.8599 -3.65478,-0.0307 c -2.01013,-0.0169 -3.89291,-0.0883 -4.18395,-0.15871 z m 9.65729,-4.85474 v -5.04414 l 4.6537,0.0832 4.6537,0.0832 0.63797,0.74236 c 0.5285,0.61498 0.63652,1.02356 0.62955,2.38125 -0.009,1.74066 -0.21961,2.1903 -1.38011,2.94562 l -0.72706,0.47321 0.99867,1.2267 c 1.91135,2.34776 1.87521,2.15274 0.39889,2.15274 h -1.31199 l -1.16781,-1.72101 -1.1678,-1.72101 -1.98438,0.0674 -1.98437,0.0674 -0.0788,1.65364 -0.0788,1.65365 h -1.04571 -1.04571 z m 8.05089,-0.39872 c 0.49085,-0.49085 0.55114,-1.98886 0.0983,-2.44173 -0.20774,-0.20774 -1.30527,-0.3175 -3.175,-0.3175 h -2.85749 v 1.5875 1.5875 h 2.75922 c 2.15561,0 2.85018,-0.091 3.175,-0.41577 z M 9.837221,54.888238 c 0.587385,-2.74579 3.301583,-5.83636 6.444102,-7.33771 1.091406,-0.52142 2.202813,-1.01864 2.469794,-1.10494 0.4578,-0.14797 0.480381,-0.55957 0.396875,-7.23421 -0.08022,-6.411753 -0.1362,-7.156064 -0.595292,-7.914674 -0.610206,-1.008301 -1.413897,-1.411601 -2.812993,-1.411601 -0.859743,0 -1.045885,-0.0916 -1.045885,-0.51477 0,-0.50143 0.320392,-0.51693 12.369273,-0.59834 8.961432,-0.0606 12.569732,-0.17206 13.096875,-0.404731 l 0.727604,-0.32115 v 3.300742 c 0,3.724432 -0.274072,4.163762 -1.36924,2.194851 -0.403635,-0.72566 -1.016071,-1.316971 -1.781228,-1.719791 -1.111594,-0.5852 -1.423839,-0.6139 -6.680729,-0.6139 h -5.514636 v 7.143764 7.14375 h 2.077855 c 1.14282,0 2.809695,0.0765 3.704167,0.16998 l 1.626311,0.16998 v 1.4927 1.4927 l -2.579687,-0.22594 c -3.765947,-0.32982 -9.310002,-0.0516 -11.796578,0.59192 -4.007939,1.0373 -7.038519,3.03914 -8.391928,5.54325 -0.5010291,0.92701 -0.5100271,0.93114 -0.34466,0.15812 z m 31.895644,-2.79782 0.08075,-1.38754 1.322917,-0.44871 c 3.333102,-1.13051 5.410943,-2.76164 6.521257,-5.11927 l 0.515487,-1.09458 -0.164729,1.19062 c -0.475107,3.43397 -3.747254,6.83881 -7.746516,8.06068 -0.589274,0.18003 -0.607187,0.13937 -0.529166,-1.2012 z m 0.153479,-4.94125 c -0.181655,-1.53445 -0.02257,-1.7582 1.595197,-2.24375 2.952832,-0.88624 4.538466,-2.45248 4.754028,-4.69585 0.101451,-1.05584 -0.0052,-1.52686 -0.577766,-2.55126 -0.580728,-1.039041 -0.610309,-1.173201 -0.171011,-0.775641 1.418281,1.283521 1.974819,4.002701 1.288254,6.294251 -0.430694,1.43753 -2.266453,3.2436 -4.251394,4.18263 -2.198399,1.04003 -2.492057,1.0166 -2.637308,-0.21038 z"
       id="path248" /></g></svg>
